<?xml version="1.0" standalone="no"?>
<!DOCTYPE svg PUBLIC "-//W3C//DTD SVG 20010904//EN"
 "http://www.w3.org/TR/2001/REC-SVG-20010904/DTD/svg10.dtd">
<svg version="1.0" xmlns="http://www.w3.org/2000/svg"
 width="300.000000pt" height="300.000000pt" viewBox="0 0 300.000000 300.000000"
 preserveAspectRatio="xMidYMid meet">
<metadata>
Created by potrace 1.10, written by Peter Selinger 2001-2011
</metadata>
<g transform="translate(0.000000,300.000000) scale(0.100000,-0.100000)"
fill="#000000" stroke="none">
<path d="M1380 2779 c-502 -42 -952 -403 -1103 -885 -80 -255 -80 -537 0 -793
98 -312 349 -604 648 -753 311 -156 689 -178 1017 -58 360 132 648 425 776
790 91 261 89 591 -4 852 -87 242 -258 467 -467 614 -255 181 -549 260 -867
233z m320 -43 c102 -16 223 -51 317 -92 55 -24 213 -116 240 -139 279 -236
420 -463 477 -764 21 -112 22 -384 1 -489 -102 -505 -494 -891 -1005 -987
-135 -26 -342 -24 -477 4 -501 104 -882 480 -983 972 -19 91 -21 128 -17 294
5 234 26 328 116 511 128 259 310 443 570 573 129 65 244 99 421 125 65 9 255
4 340 -8z"/>
<path d="M1269 2371 c-43 -28 -165 -148 -207 -205 -24 -32 -30 -102 -11 -139
6 -12 124 -136 262 -274 l252 -253 -241 -242 c-133 -134 -251 -256 -262 -272
-26 -34 -29 -103 -8 -144 17 -32 201 -215 233 -231 28 -14 78 -14 106 0 31 16
806 789 823 821 8 15 14 47 14 72 0 37 -7 53 -39 93 -65 80 -764 769 -798 787
-45 23 -73 20 -124 -13z m115 -16 c48 -23 813 -794 821 -827 4 -16 4 -40 1
-55 -10 -39 -800 -829 -838 -839 -52 -12 -81 6 -190 114 -108 109 -126 138
-113 189 4 18 101 123 273 295 l267 268 -267 267 c-269 271 -288 294 -274 348
8 30 189 217 232 240 36 19 48 19 88 0z"/>
<path d="M161 1894 c0 -11 3 -14 6 -6 3 7 2 16 -1 19 -3 4 -6 -2 -5 -13z"/>
</g>
</svg>
